# Exported from Wings 3D 0.99.02
mtllib pod.mtl
o cylinder1
#80 vertices, 156 faces
v 3.00000000 1.82500000 4.8572257e-18
v 2.77163860 1.82500000 1.14805030
v 2.12132034 1.82500000 2.12132034
v 1.14805030 1.82500000 2.77163860
v 2.8916821e-16 1.82500000 3.00000000
v -1.14805030 1.82500000 2.77163860
v -2.12132034 1.82500000 2.12132034
v -2.77163860 1.82500000 1.14805030
v -3.00000000 1.82500000 3.7225127e-16
v -2.77163860 1.82500000 -1.14805030
v -2.12132034 1.82500000 -2.12132034
v -1.14805030 1.82500000 -2.77163860
v -4.4561987e-16 1.82500000 -3.00000000
v 1.14805030 1.82500000 -2.77163860
v 2.12132034 1.82500000 -2.12132034
v 2.77163860 1.82500000 -1.14805030
v 3.00000000 -2.67500000 4.8572257e-18
v 2.77163860 -2.67500000 1.14805030
v 2.12132034 -2.67500000 2.12132034
v 1.14805030 -2.67500000 2.77163860
v 2.8916821e-16 -2.67500000 3.00000000
v -1.14805030 -2.67500000 2.77163860
v -2.12132034 -2.67500000 2.12132034
v -2.77163860 -2.67500000 1.14805030
v -3.00000000 -2.67500000 3.7225127e-16
v -2.77163860 -2.67500000 -1.14805030
v -2.12132034 -2.67500000 -2.12132034
v -1.14805030 -2.67500000 -2.77163860
v -4.4561987e-16 -2.67500000 -3.00000000
v 1.14805030 -2.67500000 -2.77163860
v 2.12132034 -2.67500000 -2.12132034
v 2.77163860 -2.67500000 -1.14805030
v 2.25000000 -3.05000000 -2.1166259e-17
v 2.07872895 -3.05000000 0.86103772
v 1.59099026 -3.05000000 1.59099026
v 0.86103772 -3.05000000 2.07872895
v 2.1201893e-16 -3.05000000 2.25000000
v -0.86103772 -3.05000000 2.07872895
v -1.59099026 -3.05000000 1.59099026
v -2.07872895 -3.05000000 0.86103772
v -2.25000000 -3.05000000 2.5437927e-16
v -2.07872895 -3.05000000 -0.86103772
v -1.59099026 -3.05000000 -1.59099026
v -0.86103772 -3.05000000 -2.07872895
v -3.3907213e-16 -3.05000000 -2.25000000
v 0.86103772 -3.05000000 -2.07872895
v 1.59099026 -3.05000000 -1.59099026
v 2.07872895 -3.05000000 -0.86103772
v 2.07872895 2.20000000 0.86103772
v 2.25000000 2.20000000 -7.9442240e-18
v 2.07872895 2.20000000 -0.86103772
v 1.59099026 2.20000000 -1.59099026
v 0.86103772 2.20000000 -2.07872895
v -3.3907213e-16 2.20000000 -2.25000000
v -0.86103772 2.20000000 -2.07872895
v -1.59099026 2.20000000 -1.59099026
v -2.07872895 2.20000000 -0.86103772
v -2.25000000 2.20000000 2.6760131e-16
v -2.07872895 2.20000000 0.86103772
v -1.59099026 2.20000000 1.59099026
v -0.86103772 2.20000000 2.07872895
v 2.1201893e-16 2.20000000 2.25000000
v 0.86103772 2.20000000 2.07872895
v 1.59099026 2.20000000 1.59099026
v 2.07872895 2.95000000 0.86103772
v 2.25000000 2.95000000 -7.9442240e-18
v 2.07872895 2.95000000 -0.86103772
v 1.59099026 2.95000000 -1.59099026
v 0.86103772 2.95000000 -2.07872895
v -3.3907213e-16 2.95000000 -2.25000000
v -0.86103772 2.95000000 -2.07872895
v -1.59099026 2.95000000 -1.59099026
v -2.07872895 2.95000000 -0.86103772
v -2.25000000 2.95000000 2.6760131e-16
v -2.07872895 2.95000000 0.86103772
v -1.59099026 2.95000000 1.59099026
v -0.86103772 2.95000000 2.07872895
v 2.1201893e-16 2.95000000 2.25000000
v 0.86103772 2.95000000 2.07872895
v 1.59099026 2.95000000 1.59099026
vt 0.0000000e+0 9.7144515e-17
vt 0.0000000e+0 0.24027332
vt 0.0000000e+0 0.24027332
vt 0.0000000e+0 0.50158207
vt 0.0000000e+0 0.78929342
vt 1.8485213e-14 0.28031888
vt 1.8805853e-3 0.43204923
vt 9.1448588e-3 0.83526773
vt 9.1448588e-3 0.74331911
vt 2.1428774e-2 0.56693537
vt 2.7402855e-2 0.36682041
vt 3.5187214e-2 0.87424286
vt 3.5187214e-2 0.70434397
vt 4.6875000e-2 0.24027332
vt 4.6875000e-2 0.28031888
vt 4.9197849e-2 0.49462991
vt 5.0966420e-2 0.44214422
vt 6.2500000e-2 2.3592239e-16
vt 6.2500000e-2 0.24027332
vt 6.2802761e-2 0.62022663
vt 6.4823956e-2 0.54428662
vt 7.0347341e-2 0.39305448
vt 7.3803595e-2 0.31401529
vt 7.4162352e-2 0.90028522
vt 7.4162352e-2 0.67830161
vt 9.3750000e-2 0.24027332
vt 9.3750000e-2 0.28031888
vt 9.5352923e-2 0.58519537
vt 0.10527006 0.35341121
vt 0.11828152 0.65545359
vt 0.12013666 0.90943008
vt 0.12013666 0.66915675
vt 0.12500000 5.5511151e-17
vt 0.12500000 0.24027332
vt 0.13558741 0.28031888
vt 0.13651224 0.61281313
vt 0.14062500 0.28031888
vt 0.14062500 0.24027332
vt 0.15163276 0.32811116
vt 0.16611097 0.90028522
vt 0.16611097 0.67830161
vt 0.18041360 0.66915675
vt 0.18284949 0.62448512
vt 0.18750000 9.7144515e-17
vt 0.18750000 0.24027332
vt 0.18750000 0.28031888
vt 0.18750000 0.24027332
vt 0.20508611 0.70434397
vt 0.20508611 0.87424286
vt 0.22843989 0.61966450
vt 0.23112846 0.83526773
vt 0.23112846 0.74331911
vt 0.23323710 0.40428648
vt 0.23437500 0.24027332
vt 0.23437500 0.28031888
vt 0.24027332 0.78929342
vt 0.24125726 0.66078794
vt 0.24479308 0.36773061
vt 0.25000000 0.24027332
vt 0.25000000 0.0000000e+0
vt 0.26773741 0.59990491
vt 0.26878521 0.42283443
vt 0.28125000 0.24027332
vt 0.28125000 0.28031888
vt 0.29222557 0.39251921
vt 0.29335446 0.63258036
vt 0.29567905 0.45251306
vt 0.29618847 0.56852433
vt 0.31042200 0.48976624
vt 0.31079367 0.53012693
vt 0.31250000 1.1102230e-16
vt 0.31250000 0.24027332
vt 0.32812500 0.28031888
vt 0.32812500 0.24027332
vt 0.32829112 0.43219162
vt 0.33071614 0.58912353
vt 0.34835102 0.48223708
vt 0.34946864 0.48112478
vt 0.34946864 0.53675722
vt 0.35398909 0.42568606
vt 0.36557554 0.53612442
vt 0.37500000 0.24027332
vt 0.37500000 0.28031888
vt 0.37500000 0.0000000e+0
vt 0.37500000 0.24027332
vt 0.37749859 0.37648243
vt 0.38941922 0.47660395
vt 0.39195497 0.43560100
vt 0.40139648 0.58331176
vt 0.40239093 0.51692688
vt 0.40894370 0.39898806
vt 0.41641746 0.33916929
vt 0.42187500 0.28031888
vt 0.42187500 0.24027332
vt 0.43003719 0.55113828
vt 0.43750000 0.24027332
vt 0.43750000 5.5511151e-17
vt 0.43774188 0.37113455
vt 0.45336911 0.61603535
vt 0.46563732 0.31790830
vt 0.46875000 0.28031888
vt 0.46875000 0.24027332
vt 0.46957874 0.57433719
vt 0.47448407 0.35519367
vt 0.50000000 0.24027332
vt 0.50000000 5.5511151e-17
vt 0.51451800 0.35296236
vt 0.51562087 0.62918417
vt 0.51562500 0.24027332
vt 0.51562500 0.28031888
vt 0.51660438 0.58282038
vt 0.51907172 0.31489484
vt 0.56250000 0.24027332
vt 0.56250000 0.28031888
vt 0.56250000 0.24027332
vt 0.56250000 1.5265567e-16
vt 0.56549141 0.57464182
vt 0.58069113 0.61998133
vt 0.60937500 0.24027332
vt 0.60937500 0.28031888
vt 0.61017779 0.54997056
vt 0.62027975 0.31723563
vt 0.62500000 0.24027332
vt 0.62500000 1.8041124e-16
vt 0.64036491 0.58850425
vt 0.64489736 0.51118247
vt 0.65207635 0.35940871
vt 0.65461208 0.28031888
vt 0.65625000 0.24027332
vt 0.65625000 0.28031888
vt 0.66493843 0.46264145
vt 0.66753473 0.40992824
vt 0.68684575 0.53781128
vt 0.68750000 0.24027332
vt 0.68750000 1.9428903e-16
vt 0.69699264 0.33650230
vt 0.70312500 0.24027332
vt 0.70312500 0.28031888
vt 0.71381731 0.47369508
vt 0.71747712 0.40045554
vt 0.71747712 0.40374660
vt 0.72662198 0.35448123
vt 0.72662198 0.44642985
vt 0.75000000 0.28031888
vt 0.75000000 0.24027332
vt 0.75000000 0.24027332
vt 0.75000000 1.8041124e-16
vt 0.75266433 0.31550609
vt 0.75266433 0.48540499
vt 0.79163947 0.28946374
vt 0.79163947 0.51144734
vt 0.81250000 0.24027332
vt 0.81250000 3.0531133e-16
vt 0.83761378 0.28031888
vt 0.83761378 0.52059220
vt 0.87500000 1.6653345e-16
vt 0.87500000 0.24027332
vt 0.88358809 0.28946374
vt 0.88358809 0.51144734
vt 0.92256323 0.31550609
vt 0.92256323 0.48540499
vt 0.93750000 0.24027332
vt 0.93750000 3.4694470e-16
vt 0.94860558 0.35448123
vt 0.94860558 0.44642985
vt 0.95775044 0.40045554
vt 1.00000000 1.9428903e-16
vt 1.00000000 0.24027332
vn 0.84812944 0.52978907 -8.2525813e-18
vn 0.78356943 0.52978907 0.32456508
vn 0.59971808 0.52978907 0.59971808
vn 0.32456508 0.52978907 0.78356943
vn -1.6505163e-17 0.52978907 0.84812944
vn -0.32456508 0.52978907 0.78356943
vn -0.59971808 0.52978907 0.59971808
vn -0.78356943 0.52978907 0.32456508
vn -0.84812944 0.52978907 2.1456711e-16
vn -0.78356943 0.52978907 -0.32456508
vn -0.59971808 0.52978907 -0.59971808
vn -0.32456508 0.52978907 -0.78356943
vn -8.2525813e-18 0.52978907 -0.84812944
vn 0.32456508 0.52978907 -0.78356943
vn 0.59971808 0.52978907 -0.59971808
vn 0.78356943 0.52978907 -0.32456508
vn 0.84812944 -0.52978907 -1.0315727e-16
vn 0.78356943 -0.52978907 0.32456508
vn 0.59971808 -0.52978907 0.59971808
vn 0.32456508 -0.52978907 0.78356943
vn -8.2525813e-18 -0.52978907 0.84812944
vn -0.32456508 -0.52978907 0.78356943
vn -0.59971808 -0.52978907 0.59971808
vn -0.78356943 -0.52978907 0.32456508
vn -0.84812944 -0.52978907 1.4442017e-16
vn -0.78356943 -0.52978907 -0.32456508
vn -0.59971808 -0.52978907 -0.59971808
vn -0.32456508 -0.52978907 -0.78356943
vn -2.4345115e-16 -0.52978907 -0.84812944
vn 0.32456508 -0.52978907 -0.78356943
vn 0.59971808 -0.52978907 -0.59971808
vn 0.78356943 -0.52978907 -0.32456508
vn 0.30500158 -0.95235185 5.7012509e-17
vn 0.24204370 -0.96507162 0.10025778
vn 0.12951366 -0.98308312 0.12951366
vn 0.10025778 -0.96507162 0.24204370
vn -2.5677925e-17 -0.98308312 0.18315998
vn -0.10025778 -0.96507162 0.24204370
vn -0.12951366 -0.98308312 0.12951366
vn -0.28178472 -0.95235185 0.11671905
vn -0.30500158 -0.95235185 -2.8506255e-17
vn -0.24204370 -0.96507162 -0.10025778
vn -0.12951366 -0.98308312 -0.12951366
vn -0.10025778 -0.96507162 -0.24204370
vn -1.3980203e-16 -0.98308312 -0.18315998
vn 0.10025778 -0.96507162 -0.24204370
vn 0.12951366 -0.98308312 -0.12951366
vn 0.28178472 -0.95235185 -0.11671905
vn 0.78356943 0.52978907 0.32456508
vn 0.84812944 0.52978907 -5.9831215e-17
vn 0.78356943 0.52978907 -0.32456508
vn 0.59971808 0.52978907 -0.59971808
vn 0.32456508 0.52978907 -0.78356943
vn -2.0631453e-16 0.52978907 -0.84812944
vn -0.32456508 0.52978907 -0.78356943
vn -0.59971808 0.52978907 -0.59971808
vn -0.78356943 0.52978907 -0.32456508
vn -0.84812944 0.52978907 2.4757744e-16
vn -0.78356943 0.52978907 0.32456508
vn -0.59971808 0.52978907 0.59971808
vn -0.32456508 0.52978907 0.78356943
vn 0.0000000e+0 0.52978907 0.84812944
vn 0.32456508 0.52978907 0.78356943
vn 0.59971808 0.52978907 0.59971808
vn 0.82309273 0.45418155 0.34093617
vn 0.89090915 0.45418155 -1.5127284e-16
vn 0.73389537 0.60744384 -0.30398942
vn 0.38696817 0.83696551 -0.38696817
vn 0.30398942 0.60744384 -0.73389537
vn -3.5620038e-16 0.83696551 -0.54725564
vn -0.30398942 0.60744384 -0.73389537
vn -0.38696817 0.83696551 -0.38696817
vn -0.82309273 0.45418155 -0.34093617
vn -0.89090915 0.45418155 2.6472748e-16
vn -0.73389537 0.60744384 0.30398942
vn -0.38696817 0.83696551 0.38696817
vn -0.30398942 0.60744384 0.73389537
vn 0.0000000e+0 0.83696551 0.54725564
vn 0.30398942 0.60744384 0.73389537
vn 0.38696817 0.83696551 0.38696817
g cylinder1_cylinder1_auv
usemtl cylinder1_auv
f 1/59/1 17/60/17 16/72/16
f 1/79/1 50/70/50 2/77/2
f 2/45/2 17/60/17 1/59/1
f 2/45/2 19/33/19 18/44/18
f 2/77/2 64/67/64 3/75/3
f 3/34/3 19/33/19 2/45/2
f 3/75/3 64/67/64 4/65/4
f 4/19/4 19/33/19 3/34/3
f 4/19/4 21/1/21 20/18/20
f 4/65/4 62/53/62 5/58/5
f 5/2/5 21/1/21 4/19/4
f 5/35/5 62/39/62 6/23/6
f 6/162/6 21/167/21 5/168/5
f 6/162/6 23/156/23 22/163/22
f 6/23/6 60/22/60 7/11/7
f 7/157/7 23/156/23 6/162/6
f 7/11/7 60/22/60 8/7/8
f 8/152/8 23/156/23 7/157/7
f 8/152/8 25/147/25 24/153/24
f 8/7/8 58/16/58 9/4/9
f 9/146/9 25/147/25 8/152/8
f 9/4/9 58/16/58 10/10/10
f 10/134/10 25/147/25 9/146/9
f 10/134/10 27/124/27 26/135/26
f 10/10/10 56/28/56 11/20/11
f 11/123/11 27/124/27 10/134/10
f 11/20/11 56/28/56 12/30/12
f 12/115/12 27/124/27 11/123/11
f 12/115/12 29/106/29 28/116/28
f 12/30/12 54/43/54 13/42/13
f 13/105/13 29/106/29 12/115/12
f 13/42/13 54/43/54 14/57/14
f 14/96/14 29/106/29 13/105/13
f 14/96/14 31/84/31 30/97/30
f 14/57/14 52/61/52 15/66/15
f 15/85/15 31/84/31 14/96/14
f 15/66/15 52/61/52 16/76/16
f 16/72/16 17/60/17 32/71/32
f 16/72/16 31/84/31 15/85/15
f 16/76/16 50/70/50 1/79/1
f 17/80/17 48/87/48 32/78/32
f 18/44/18 17/60/17 2/45/2
f 18/86/18 34/91/34 17/80/17
f 19/92/19 34/91/34 18/86/18
f 20/18/20 19/33/19 4/19/4
f 20/100/20 36/104/36 19/92/19
f 21/112/21 36/104/36 20/100/20
f 22/163/22 21/167/21 6/162/6
f 22/136/22 38/127/38 21/128/21
f 23/141/23 38/127/38 22/136/22
f 24/153/24 23/156/23 8/152/8
f 24/139/24 40/131/40 23/141/23
f 25/133/25 40/131/40 24/139/24
f 26/135/26 25/147/25 10/134/10
f 26/125/26 42/121/42 25/133/25
f 27/118/27 42/121/42 26/125/26
f 28/116/28 27/124/27 12/115/12
f 28/108/28 44/111/44 27/118/27
f 29/99/29 44/111/44 28/108/28
f 30/97/30 29/106/29 14/96/14
f 30/89/30 46/95/46 29/99/29
f 31/81/31 46/95/46 30/89/30
f 32/71/32 31/84/31 16/72/16
f 32/78/32 48/87/48 31/81/31
f 33/88/33 17/80/17 34/91/34
f 33/88/33 48/87/48 17/80/17
f 34/91/34 19/92/19 35/98/35
f 34/142/34 48/143/48 33/140/33
f 35/98/35 19/92/19 36/104/36
f 35/148/35 47/149/47 34/142/34
f 36/104/36 21/112/21 37/107/37
f 36/150/36 46/151/46 35/148/35
f 37/122/37 21/128/21 38/127/38
f 37/154/37 45/155/45 36/150/36
f 38/127/38 23/141/23 39/132/39
f 38/158/38 44/159/44 37/154/37
f 39/132/39 23/141/23 40/131/40
f 39/160/39 43/161/43 38/158/38
f 40/131/40 25/133/25 41/126/41
f 40/164/40 42/165/42 39/160/39
f 41/126/41 25/133/25 42/121/42
f 41/166/41 42/165/42 40/164/40
f 42/121/42 27/118/27 43/117/43
f 43/117/43 27/118/27 44/111/44
f 43/161/43 39/160/39 42/165/42
f 44/111/44 29/99/29 45/103/45
f 44/159/44 38/158/38 43/161/43
f 45/103/45 29/99/29 46/95/46
f 45/155/45 37/154/37 44/159/44
f 46/95/46 31/81/31 47/90/47
f 46/151/46 36/150/36 45/155/45
f 47/90/47 31/81/31 48/87/48
f 47/149/47 35/148/35 46/151/46
f 48/143/48 34/142/34 47/149/47
f 49/69/49 2/77/2 50/70/50
f 49/69/49 64/67/64 2/77/2
f 49/120/49 65/119/65 64/130/64
f 50/70/50 16/76/16 51/68/51
f 50/114/50 65/119/65 49/120/49
f 51/68/51 16/76/16 52/61/52
f 51/110/51 67/109/67 50/114/50
f 52/61/52 14/57/14 53/50/53
f 52/101/52 67/109/67 51/110/51
f 53/50/53 14/57/14 54/43/54
f 53/93/53 69/94/69 52/101/52
f 54/43/54 12/30/12 55/36/55
f 54/83/54 69/94/69 53/93/53
f 55/36/55 12/30/12 56/28/56
f 55/73/55 71/74/71 54/83/54
f 56/28/56 10/10/10 57/21/57
f 56/64/56 71/74/71 55/73/55
f 57/21/57 10/10/10 58/16/58
f 57/55/57 73/54/73 56/64/56
f 58/16/58 8/7/8 59/17/59
f 58/46/58 73/54/73 57/55/57
f 59/17/59 8/7/8 60/22/60
f 59/37/59 75/38/75 58/46/58
f 60/22/60 6/23/6 61/29/61
f 60/27/60 75/38/75 59/37/59
f 61/29/61 6/23/6 62/39/62
f 61/15/61 77/14/77 60/27/60
f 62/53/62 4/65/4 63/62/63
f 62/6/62 77/14/77 61/15/61
f 63/62/63 4/65/4 64/67/64
f 63/138/63 79/137/79 62/144/62
f 64/130/64 79/137/79 63/138/63
f 65/119/65 50/114/50 66/113/66
f 65/52/65 67/51/67 80/48/80
f 66/113/66 50/114/50 67/109/67
f 66/56/66 67/51/67 65/52/65
f 67/109/67 52/101/52 68/102/68
f 68/102/68 52/101/52 69/94/69
f 68/49/68 80/48/80 67/51/67
f 69/94/69 54/83/54 70/82/70
f 69/40/69 79/41/79 68/49/68
f 70/82/70 54/83/54 71/74/71
f 70/31/70 78/32/78 69/40/69
f 71/74/71 56/64/56 72/63/72
f 71/24/71 77/25/77 70/31/70
f 72/63/72 56/64/56 73/54/73
f 72/12/72 76/13/76 71/24/71
f 73/54/73 58/46/58 74/47/74
f 73/8/73 75/9/75 72/12/72
f 74/47/74 58/46/58 75/38/75
f 74/5/74 75/9/75 73/8/73
f 75/38/75 60/27/60 76/26/76
f 76/26/76 60/27/60 77/14/77
f 76/13/76 72/12/72 75/9/75
f 77/14/77 62/6/62 78/3/78
f 77/25/77 71/24/71 76/13/76
f 78/145/78 62/144/62 79/137/79
f 78/32/78 70/31/70 77/25/77
f 79/137/79 64/130/64 80/129/80
f 79/41/79 69/40/69 78/32/78
f 80/129/80 64/130/64 65/119/65
f 80/48/80 68/49/68 79/41/79
